<svg viewBox="0 0 27 35" xmlns="http://www.w3.org/2000/svg">
<path d="M13.5449 0H13.4453L0 1.4V26.1L13.4453 34.1L26.791 26.1V1.4L13.5449 0ZM24.8987 12.1L13.4453 5.3V5.2H13.3457L13.2461 5.1V5.2L1.8923 12.1V3.1L13.3457 1.9L24.8987 3.1V12.1ZM13.3457 6.8L24.7991 13.5L20.3174 16.1L13.2461 11.9V13.3L19.1222 16.8L18.2259 17.3L13.2461 14.3V15.7L17.0307 18L16.234 18.5L13.2461 16.7V18.1L15.1384 19.2L13.3457 20.3L1.9919 13.6L13.3457 6.8ZM1.8923 15.1L13.2461 21.9V22.9L5.37813 18.2V19.6L13.3457 24.4V25.5L5.37813 20.8V22.2L13.3457 27L21.4129 22.1V16.9L24.7991 14.9V24.9L13.3457 31.8L1.8923 25V15.1Z"/>
</svg>
