<svg width="114" height="46" viewBox="0 0 114 46" fill="none" xmlns="http://www.w3.org/2000/svg">
<path d="M110.853 41.7775C115.276 42.6755 111.657 5.95536 110.953 3.56057C108.943 -3.02512 84.1108 1.46512 78.5814 1.86425C65.8136 2.86208 53.2469 0.866423 40.7807 1.46512C34.5476 1.76447 5.69443 -0.330974 3.08055 3.46078C-1.94614 10.6452 0.366137 29.2048 1.77361 38.4846C-2.24774 39.2829 4.08589 42.6755 4.89016 43.374C11.2238 45.5692 21.3777 43.1745 28.0129 43.7732C43.4951 45.2699 59.9827 41.5779 75.5654 42.7753C80.0894 43.8729 85.2167 43.7731 89.8412 43.9727C93.3599 49.5606 109.646 41.5779 110.853 41.7775C111.355 41.8773 110.752 41.7775 110.853 41.7775Z" fill="black"/>
<path d="M26.2034 24.3163C26.1028 21.8217 25.7007 19.2274 25.7007 16.7328C25.7007 14.6373 26.1028 12.5419 25.3991 10.5462C25.3991 10.3467 25.4996 10.1471 25.4996 9.84775C25.7007 8.84991 22.3831 9.34883 21.8804 10.2469C21.5788 10.5462 21.3777 10.8456 21.4783 11.1449C21.4783 11.2447 21.5788 11.3445 21.5788 11.3445C20.9756 14.338 20.0708 17.3315 19.0655 20.2252C18.6633 21.3228 18.2612 22.4204 17.8591 23.6178C17.2559 22.62 16.7532 21.5224 16.2505 20.4248C14.9436 17.1319 13.7372 13.8391 12.1286 10.7458C12.3297 9.24905 9.11261 9.44861 8.40888 10.7458C7.60461 12.3423 7.70514 13.9389 8.00674 15.6352C8.30834 17.531 8.30834 19.4269 8.40888 21.4226C8.40888 25.2143 8.71048 28.9063 8.81101 32.6981C8.50941 33.0972 8.40888 33.4963 8.71048 33.9952C8.91154 34.1948 9.01208 34.3944 9.21315 34.4942C10.1179 35.1926 12.5308 34.594 12.5308 33.2968C12.5308 29.4052 12.2292 25.5137 12.1286 21.6221C12.1286 21.223 12.1286 20.8239 12.1286 20.5245C12.2292 20.6243 12.2292 20.8239 12.3297 20.9237C12.9329 22.4204 13.5361 23.9172 14.4409 25.3141C15.2452 26.7111 15.6473 28.2078 16.15 29.7046C15.9489 29.9041 15.8484 30.1037 15.9489 30.4031C15.9489 30.6026 16.0494 30.7024 16.15 30.7024C16.7532 31.2013 17.8591 31.0018 18.5628 30.7024C18.8644 30.6026 19.0655 30.5028 19.3671 30.3033C19.6687 30.1037 20.1713 29.7046 20.0708 29.2057C20.0708 29.1059 19.9703 29.0061 19.9703 28.9063C20.3724 27.7089 20.674 26.4117 20.8751 25.2143C21.1767 23.8174 21.5788 22.62 22.0815 21.3228C22.0815 21.9215 22.182 22.5202 22.182 23.1189C22.3831 25.5137 22.182 27.9085 22.182 30.3033C22.182 31.1015 22.2825 31.8 22.3831 32.5983C22.4836 32.8976 22.6847 34.2946 22.6847 34.3944C22.0815 34.8933 22.2825 35.5918 23.0868 35.7913C23.9916 35.9909 25.0975 35.6916 25.7007 35.0929C26.8066 34.095 26.3039 32.3987 26.0023 31.1015C25.7007 29.1059 26.3039 26.6113 26.2034 24.3163Z" fill="white"/>
<path d="M34.1455 25.0148C34.045 23.1189 33.4418 21.3228 33.4418 19.4269C33.4418 17.2317 33.6429 15.0365 33.3413 12.941C33.2407 12.2425 29.521 13.0408 29.6215 13.9389C29.9231 15.9345 29.8226 17.9302 29.8226 19.9258C29.8226 21.8217 30.2247 23.6178 30.5263 25.5137C30.8279 27.5094 30.4258 29.4052 30.6268 31.4009C30.7274 32.2989 31.3306 33.9953 30.7274 34.7935C30.3252 35.2924 32.1349 35.0929 32.2354 35.0929C32.9391 34.9931 33.9445 34.6937 34.4471 34.095C35.0503 33.2968 34.6482 31.8 34.5477 30.902C34.045 29.0061 34.2461 26.9107 34.1455 25.0148Z" fill="white"/>
<path d="M49.7283 21.8217C47.7176 19.2274 44.0984 21.1232 41.585 20.325C40.2781 19.9258 40.2781 18.1297 40.2781 17.1319C40.2781 15.735 40.1776 14.5376 39.9765 13.2404C39.876 12.2425 39.9765 11.2447 40.6802 10.4464C40.7808 10.3467 41.4845 10.1471 41.4845 10.1471C41.7861 10.0473 42.0877 10.0473 42.4898 10.0473C43.9978 9.94753 46.9133 10.2469 46.3101 12.4421C46.0085 13.4399 49.7283 12.8412 50.0299 11.8434C51.2363 7.45295 43.093 8.351 40.7808 8.9497C38.6695 9.5484 36.3573 10.7458 36.2567 13.1406C36.1562 14.338 36.5583 15.4356 36.5583 16.5332C36.6589 17.8304 36.3573 19.1276 36.8599 20.4248C37.8653 23.2187 42.0877 21.9215 44.2994 22.1211C47.9187 22.4204 46.9133 27.3098 46.9133 29.6048C46.9133 30.8022 48.0192 32.8976 47.1144 33.8955C46.5112 34.4942 45.2042 34.594 44.5005 34.594C43.6962 34.6937 42.3893 34.8933 41.8866 34.1948C40.9818 32.8976 41.9872 30.6026 41.7861 29.1059C41.6856 28.2078 37.8653 29.0061 38.0663 30.1037C38.3679 32.5983 36.7594 35.8911 40.3786 36.39C42.6909 36.6894 45.3048 36.1905 47.5165 35.492C48.6224 35.0929 49.7283 34.594 50.6331 33.7957C51.6384 32.8976 51.3368 31.6005 51.0352 30.4031C50.2309 27.4096 51.5379 24.2165 49.7283 21.8217Z" fill="white"/>
<path d="M66.3164 21.6222C66.2158 18.03 65.6126 14.5376 65.6126 10.9454C65.6126 9.04948 61.7923 9.74796 61.7923 11.2447C61.7923 14.6373 62.295 18.03 62.3955 21.4226C62.3955 21.5224 62.3955 21.5224 62.3955 21.6222C60.5859 21.6222 58.6758 21.8217 56.7656 21.8217C56.9667 17.4313 56.1624 13.0408 56.3635 8.75013C56.3635 8.15143 52.6438 8.65035 52.6438 9.74796C52.4427 13.9389 53.247 18.2295 53.0459 22.4204C52.9454 24.4161 52.8448 26.4117 52.8448 28.5072C52.8448 29.505 53.0459 30.6026 53.1464 31.6005C53.247 32.4985 53.6491 33.7957 53.3475 34.6937C53.1464 35.3922 56.7656 34.9931 57.0672 33.9953C57.5699 32.2989 56.8662 30.2035 56.6651 28.5072C56.464 26.9107 56.6651 25.2143 56.7656 23.518C58.6758 23.4182 60.6865 23.2187 62.5966 23.518C62.6971 24.8152 62.7977 26.1124 62.8982 27.4096C62.9987 28.5072 63.0993 29.6048 63.0993 30.7024C63.0993 31.7002 63.1998 33.0972 62.8982 33.9953C62.1945 35.9909 65.9142 35.7914 66.4169 34.2946C67.1206 32.4985 66.9196 30.3033 66.819 28.5072C66.7185 26.312 66.3164 23.9172 66.3164 21.6222Z" fill="white"/>
<path d="M82.4017 25.9128C81.4969 23.3185 80.0894 21.0235 78.9836 18.5289C79.9889 16.633 80.8937 14.8369 81.7985 12.941C82.6028 11.2447 83.206 9.34883 84.714 8.15144C85.2167 7.7523 85.2167 7.35317 84.5129 7.25339C83.7087 7.1536 82.5022 7.45295 81.899 7.95187C80.4916 9.04948 79.5868 10.3467 78.883 12.043C77.9782 13.9389 77.0734 15.9345 76.0681 17.8304C75.9676 17.9302 75.9676 18.1297 75.867 18.2295C75.3644 18.5289 75.1633 18.928 75.2638 19.4269C74.4595 20.9237 73.7558 22.4204 72.851 23.8174C72.5494 18.5289 71.9462 13.3402 71.7451 8.05165C71.7451 6.85426 67.9249 7.55274 68.0254 9.04948C68.2265 15.5354 69.2318 22.0213 69.2318 28.5072C68.9302 28.8065 69.0307 29.0061 69.3323 29.1059C69.3323 30.8022 69.2318 32.3987 69.1313 34.095C68.7291 34.7935 69.5334 35.1927 70.1366 35.1927H70.2371C70.9409 35.1927 72.7505 34.8933 72.851 33.8955C73.0521 31.8998 73.0521 29.9041 73.0521 27.9085C74.5601 26.312 75.7665 24.5159 76.8724 22.62C77.5761 24.0169 78.2798 25.4139 78.7825 26.9107C79.5868 29.505 80.9942 31.8998 81.7985 34.4942C82.3012 36.1905 86.0209 35.1927 85.5183 33.4963C84.6135 30.902 83.3065 28.5072 82.4017 25.9128Z" fill="white"/>
<path d="M104.821 21.5224C104.62 20.7241 103.514 20.7241 102.609 20.8239C102.609 20.5245 102.609 20.2252 102.609 19.8261C102.509 17.3315 102.408 14.7371 102.207 12.2425C102.006 9.94753 100.699 9.04948 98.3867 9.14927C96.0744 9.24905 93.36 9.64818 91.2488 10.4464C88.7354 11.4443 87.328 13.2404 86.9258 15.8347C86.4232 18.7284 87.1269 21.7219 87.328 24.6156C87.4285 27.9085 87.4285 31.3011 87.4285 34.5939C87.4285 35.0929 91.1483 34.5939 91.1483 33.5961C91.1483 31.0018 91.1483 28.3076 91.1483 25.7133C91.1483 24.915 91.1483 24.2165 91.0477 23.4182C92.3547 22.8195 94.5664 23.4182 95.8733 23.518C96.9792 23.6178 97.9846 23.3185 98.9899 23.2187C98.9899 25.4139 99.0904 27.6091 99.191 29.8044C99.191 30.902 99.6936 33.197 98.8894 34.095C98.4872 34.5939 100.297 34.3944 100.397 34.3944C101.202 34.2946 102.106 33.9953 102.609 33.3966C103.514 32.2989 103.011 29.8044 103.011 28.5072C102.911 26.7111 102.911 24.915 102.911 23.1189C103.816 23.0191 105.022 22.3206 104.821 21.5224ZM90.9472 21.3228C90.8467 20.1254 90.7461 18.928 90.6456 17.7306C90.4445 15.5354 90.7461 12.4421 92.8573 11.1449C93.4605 10.7458 94.4659 10.8456 95.0691 10.7458C95.9739 10.5462 96.9792 10.3467 97.7835 10.9454C98.8894 11.7436 98.6883 14.4378 98.6883 15.5354C98.6883 17.4313 98.8894 19.3271 98.9899 21.223C98.4872 21.3228 97.884 21.3228 97.3814 21.3228C95.1696 21.223 92.9579 20.9237 90.9472 21.3228Z" fill="white"/>
<path d="M30.9285 10.3467C31.4311 10.3467 31.9338 10.1471 32.3359 9.84775C32.4365 9.74796 32.537 9.74797 32.537 9.64818C33.0397 9.34883 33.4418 8.84992 33.2407 8.351C32.7381 7.35317 32.8386 6.25556 32.8386 5.15794C32.8386 4.2599 31.9338 3.96055 31.1295 4.06033C30.4258 4.16011 29.0183 4.65903 29.0183 5.45729C29.0183 6.35534 28.9178 7.35317 29.1189 8.25122C29.1189 8.351 29.0183 8.45078 29.0183 8.55057C28.9178 8.75013 29.0183 8.9497 29.1189 9.14927V9.24905C29.1189 9.34883 29.1189 9.44862 29.1189 9.5484C29.2194 9.74797 29.3199 9.94753 29.521 10.0473C30.0237 10.3467 30.5263 10.3467 30.9285 10.3467Z" fill="white"/>
</svg>
