<svg width="77" height="19" viewBox="0 0 77 19" fill="none" xmlns="http://www.w3.org/2000/svg">
<mask id="mask0_40407_483" style="mask-type:alpha" maskUnits="userSpaceOnUse" x="0" y="0" width="77" height="19">
<rect width="77" height="19" fill="#D9D9D9"/>
</mask>
<g mask="url(#mask0_40407_483)">
<path d="M579 17C572.958 17 569.803 13.6 567.252 10.8652C564.97 8.42609 563.292 6.65217 559.734 6.65217C556.109 6.65217 554.497 8.42609 552.215 10.8652C549.664 13.6 546.509 17 540.467 17C534.425 17 531.27 13.6 528.719 10.8652C526.437 8.42609 524.759 6.65217 521.201 6.65217C517.643 6.65217 515.964 8.42609 513.682 10.8652C511.131 13.6 507.976 17 501.934 17C495.892 17 492.737 13.6 490.186 10.8652C487.904 8.42609 486.226 6.65217 482.668 6.65217C479.043 6.65217 477.432 8.42609 475.149 10.8652C472.598 13.6 469.443 17 463.401 17C457.36 17 454.205 13.6 451.654 10.8652C449.371 8.42609 447.693 6.65217 444.135 6.65217C440.51 6.65217 438.899 8.42609 436.616 10.8652C433.797 13.6 430.642 17 424.6 17C418.558 17 415.403 13.6 412.852 10.8652C410.57 8.42609 408.891 6.65217 405.334 6.65217C401.709 6.65217 400.097 8.42609 397.815 10.8652C395.264 13.6 392.109 17 386.067 17C380.025 17 376.87 13.6 374.319 10.8652C372.037 8.42609 370.359 6.65217 366.801 6.65217C363.176 6.65217 361.565 8.42609 359.282 10.8652C356.597 13.6 353.442 17 347.4 17C341.358 17 338.203 13.6 335.652 10.8652C333.37 8.42609 331.691 6.65217 328.134 6.65217C324.509 6.65217 322.897 8.42609 320.615 10.8652C318.064 13.6 314.909 17 308.867 17C302.825 17 299.67 13.6 297.119 10.8652C294.837 8.42609 293.159 6.65217 289.601 6.65217C286.043 6.65217 284.365 8.42609 282.082 10.8652C279.464 13.6 276.242 17 270.2 17C264.158 17 261.003 13.6 258.452 10.8652C256.17 8.42609 254.491 6.65217 250.934 6.65217C247.309 6.65217 245.697 8.42609 243.415 10.8652C240.864 13.6 237.709 17 231.667 17C225.625 17 222.47 13.6 219.919 10.8652C217.637 8.42609 215.959 6.65217 212.401 6.65217C208.776 6.65217 207.165 8.42609 204.882 10.8652C202.331 13.6 199.176 17 193.134 17C187.093 17 183.937 13.6 181.386 10.8652C179.104 8.42609 177.426 6.65217 173.868 6.65217C170.31 6.65217 168.632 8.42609 166.349 10.8652C163.798 13.6 160.643 17 154.601 17C148.56 17 145.405 13.6 142.854 10.8652C140.571 8.42609 138.893 6.65217 135.335 6.65217C131.71 6.65217 130.099 8.42609 127.816 10.8652C125.265 13.6 122.11 17 116.069 17C110.027 17 106.872 13.6 104.321 10.8652C102.038 8.42609 100.36 6.65217 96.8021 6.65217C93.1771 6.65217 91.5659 8.42609 89.2835 10.8652C86.7325 13.6 83.5774 17 77.5357 17C71.4939 17 68.3388 13.6 65.7878 10.8652C63.5054 8.42609 61.8271 6.65217 58.2692 6.65217C54.6442 6.65217 53.033 8.42609 50.7506 10.8652C48.1997 13.6 45.0445 17 39.0028 17C32.961 17 29.8059 13.6 27.255 10.8652C24.9725 8.42609 23.2943 6.65217 19.7363 6.65217C16.1784 6.65217 14.5002 8.42609 12.2177 10.8652C9.66679 13.6 6.51166 17 0.46992 17C-5.57182 17 -8.72695 13.6 -11.2779 10.8652C-13.5603 8.42609 -15.2386 6.65217 -18.7965 6.65217C-22.4216 6.65217 -24.0327 8.42609 -26.3151 10.8652C-28.8661 13.6 -32.0212 17 -38.063 17C-44.1047 17 -47.2598 13.6 -49.8108 10.8652C-52.0932 8.42609 -53.7715 6.65217 -57.3294 6.65217C-60.9544 6.65217 -62.5656 8.42609 -64.848 10.8652C-67.399 13.6 -70.5541 17 -76.5958 17C-82.6376 17 -85.7927 13.6 -88.3437 10.8652C-90.6261 8.42609 -92.3044 6.65217 -95.8623 6.65217C-99.4873 6.65217 -101.098 8.42609 -103.381 10.8652C-106.536 13.6 -109.758 17 -115.8 17C-121.842 17 -124.997 13.6 -127.548 10.8652C-129.83 8.42609 -131.509 6.65217 -135.066 6.65217C-138.691 6.65217 -140.303 8.42609 -142.585 10.8652C-145.136 13.6 -148.291 17 -154.333 17C-160.375 17 -163.53 13.6 -166.081 10.8652C-168.43 8.42609 -170.109 6.65217 -173.666 6.65217C-177.291 6.65217 -178.903 8.42609 -181.185 10.8652C-183.803 13.6 -186.958 17 -193 17V10.3478C-189.375 10.3478 -187.764 8.57391 -185.481 6.13478C-182.93 3.4 -179.775 0 -173.666 0C-167.625 0 -164.47 3.4 -161.919 6.13478C-159.636 8.57391 -157.958 10.3478 -154.4 10.3478C-150.775 10.3478 -149.164 8.57391 -146.881 6.13478C-144.33 3.4 -141.108 0 -135.066 0C-129.025 0 -125.87 3.4 -123.319 6.13478C-121.036 8.57391 -119.358 10.3478 -115.8 10.3478C-112.175 10.3478 -110.564 8.57391 -108.281 6.13478C-105.73 3.4 -102.575 0 -96.5336 0C-90.4918 0 -87.3367 3.4 -84.7857 6.13478C-82.5033 8.57391 -80.825 10.3478 -77.2671 10.3478C-73.6421 10.3478 -72.031 8.57391 -69.7485 6.13478C-67.1976 3.4 -64.0424 0 -58.0007 0C-51.959 0 -48.8038 3.4 -46.2529 6.13478C-43.9704 8.57391 -42.2922 10.3478 -38.7343 10.3478C-35.1092 10.3478 -33.4981 8.57391 -31.2157 6.13478C-28.6647 3.4 -25.5096 0 -19.4678 0C-13.4261 0 -10.271 3.4 -7.72 6.13478C-5.43757 8.57391 -3.7593 10.3478 -0.201384 10.3478C3.42366 10.3478 5.03478 8.57391 7.31721 6.13478C9.86817 3.4 13.0233 0 19.065 0C25.1068 0 28.2619 3.4 30.8129 6.13478C33.0953 8.57391 34.7736 10.3478 38.3315 10.3478C41.9565 10.3478 43.5676 8.57391 45.8501 6.13478C48.401 3.4 51.5562 0 57.5979 0C63.6396 0 66.7948 3.4 69.3457 6.13478C71.6282 8.57391 73.3064 10.3478 76.8643 10.3478C80.4223 10.3478 82.1005 8.57391 84.383 6.13478C86.9339 3.4 90.0891 0 96.1308 0C102.173 0 105.328 3.4 107.879 6.13478C110.161 8.57391 111.839 10.3478 115.397 10.3478C119.022 10.3478 120.633 8.57391 122.916 6.13478C125.467 3.4 128.622 0 134.664 0C140.705 0 143.861 3.4 146.411 6.13478C148.694 8.57391 150.372 10.3478 153.93 10.3478C157.555 10.3478 159.166 8.57391 161.449 6.13478C164 3.4 167.155 0 173.197 0C179.238 0 182.393 3.4 184.944 6.13478C187.227 8.57391 188.905 10.3478 192.463 10.3478C196.088 10.3478 197.699 8.57391 199.982 6.13478C202.533 3.4 205.688 0 211.729 0C217.771 0 220.926 3.4 223.477 6.13478C225.76 8.57391 227.438 10.3478 230.996 10.3478C234.621 10.3478 236.232 8.57391 238.514 6.13478C241.065 3.4 244.221 0 250.262 0C256.304 0 259.459 3.4 262.01 6.13478C264.293 8.57391 265.971 10.3478 269.529 10.3478C273.154 10.3478 274.765 8.57391 277.047 6.13478C279.598 3.4 282.753 0 288.795 0C294.837 0 297.992 3.4 300.543 6.13478C302.825 8.57391 304.504 10.3478 308.062 10.3478C311.687 10.3478 313.298 8.57391 315.58 6.13478C318.131 3.4 321.286 0 327.328 0C333.37 0 336.525 3.4 339.076 6.13478C341.358 8.57391 343.037 10.3478 346.594 10.3478C350.219 10.3478 351.831 8.57391 354.113 6.13478C357.47 3.4 360.625 0 366.734 0C372.775 0 375.93 3.4 378.481 6.13478C380.764 8.57391 382.442 10.3478 386 10.3478C389.558 10.3478 391.236 8.57391 393.519 6.13478C396.07 3.4 399.225 0 405.266 0C411.308 0 414.463 3.4 417.014 6.13478C419.297 8.57391 420.975 10.3478 424.533 10.3478C428.091 10.3478 429.769 8.57391 432.051 6.13478C434.67 3.4 437.825 0 443.934 0C450.042 0 453.13 3.4 455.681 6.13478C457.964 8.57391 459.642 10.3478 463.2 10.3478C466.758 10.3478 468.436 8.57391 470.719 6.13478C473.27 3.4 476.425 0 482.466 0C488.508 0 491.663 3.4 494.214 6.13478C496.497 8.57391 498.175 10.3478 501.733 10.3478C505.358 10.3478 506.969 8.57391 509.251 6.13478C511.802 3.4 514.958 0 520.999 0C527.041 0 530.196 3.4 532.747 6.13478C535.03 8.57391 536.708 10.3478 540.266 10.3478C543.824 10.3478 545.502 8.57391 547.784 6.13478C550.335 3.4 553.49 0 559.532 0C565.574 0 568.729 3.4 571.28 6.13478C573.562 8.57391 575.241 10.3478 578.799 10.3478V17H579Z" fill="#F1F1F1"/>
</g>
</svg>
