<svg width="77" height="24" viewBox="0 0 77 24" fill="none" xmlns="http://www.w3.org/2000/svg">
<mask id="mask0_40402_368" style="mask-type:alpha" maskUnits="userSpaceOnUse" x="0" y="0" width="77" height="24">
<rect width="77" height="24" fill="#D9D9D9"/>
</mask>
<g mask="url(#mask0_40402_368)">
<path d="M596.783 0C587.142 0 587.142 9.88235 577.567 9.88235C567.992 9.88235 567.925 0 558.35 0C548.776 0 548.709 9.88235 539.134 9.88235C529.492 9.88235 529.492 0 519.85 0C510.209 0 510.209 9.88235 500.634 9.88235C490.992 9.88235 490.992 0 481.417 0C471.776 0 471.776 9.88235 462.201 9.88235C452.626 9.88235 452.358 0 442.783 0C433.142 0 433.142 9.88235 423.567 9.88235C413.992 9.88235 413.858 0 404.283 0C394.642 0 394.642 9.88235 385.067 9.88235C375.425 9.88235 375.425 0 365.783 0C356.142 0 356.142 9.88235 346.567 9.88235C336.925 9.88235 336.925 0 327.35 0C317.776 0 317.642 9.88235 308 9.88235C298.358 9.88235 298.358 0 288.783 0C279.142 0 279.142 9.88235 269.567 9.88235C259.925 9.88235 259.925 0 250.283 0C240.642 0 240.642 9.88235 231.067 9.88235C221.425 9.88235 221.425 0 211.85 0C202.209 0 202.209 9.88235 192.634 9.88235C182.992 9.88235 182.992 0 173.417 0C163.776 0 163.776 9.88235 154.134 9.88235C144.492 9.88235 144.492 0 134.85 0C125.209 0 125.209 9.88235 115.567 9.88235C105.925 9.88235 105.925 0 96.2835 0C86.6417 0 86.6417 9.88235 77 9.88235C67.3583 9.88235 67.3583 0 57.7165 0C48.0748 0 48.0748 9.88235 38.433 9.88235C28.7913 9.88235 28.7913 0 19.1496 0C9.50783 0 9.50782 9.88235 -0.0669644 9.88235C-9.7087 9.88235 -9.7087 0 -19.3504 0C-28.9922 0 -28.9922 9.88235 -38.6339 9.88235C-48.2757 9.88235 -48.2757 0 -57.9174 0C-67.5591 0 -67.5591 9.88235 -77.2009 9.88235C-86.8426 9.88235 -86.8426 0 -96.4843 0C-105.858 0 -105.858 9.88235 -115.5 9.88235C-125.142 9.88235 -125.142 0 -134.717 0C-144.291 0 -144.358 9.88235 -154 9.88235V24H616V9.88235C606.358 9.88235 606.358 0 596.783 0Z" fill="white"/>
</g>
</svg>
